<svg width="106" height="29" viewBox="0 0 106 29" fill="none" xmlns="http://www.w3.org/2000/svg">
<path d="M19.1389 23H14.9451V13.2198H4.45308V23H0.25935V0.623148H4.45308V10.2486H14.9451V0.623148H19.1389V23ZM26.9339 7.12265V17.2123C26.9339 18.1821 27.1557 18.9352 27.5993 19.4717C28.0533 19.9978 28.729 20.2609 29.6265 20.2609C30.2868 20.2609 30.9058 20.1165 31.4835 19.8276C32.0613 19.5284 32.6081 19.1209 33.1239 18.6051V7.12265H36.9462V23H34.6095C34.1143 23 33.7893 22.7679 33.6346 22.3036L33.3715 21.0347C33.0414 21.3648 32.7009 21.6691 32.3501 21.9477C31.9994 22.2159 31.6228 22.4481 31.2205 22.6441C30.8284 22.8298 30.4003 22.9742 29.936 23.0774C29.4821 23.1909 28.9921 23.2476 28.4659 23.2476C27.5993 23.2476 26.8307 23.1032 26.1601 22.8143C25.4999 22.5151 24.9428 22.0973 24.4888 21.5608C24.0349 21.0244 23.6893 20.3899 23.452 19.6574C23.2251 18.9146 23.1116 18.0996 23.1116 17.2123V7.12265H26.9339ZM41.0273 23V7.12265H43.364C43.8592 7.12265 44.1842 7.35477 44.3389 7.81902L44.602 9.0725C44.9218 8.74237 45.2571 8.44318 45.6079 8.17495C45.969 7.90672 46.3455 7.67459 46.7375 7.47857C47.1399 7.28256 47.568 7.13297 48.022 7.0298C48.4759 6.92663 48.9711 6.87505 49.5076 6.87505C50.3742 6.87505 51.1428 7.02464 51.8133 7.32382C52.4839 7.61269 53.041 8.02536 53.4846 8.56182C53.9386 9.08797 54.279 9.72245 54.506 10.4652C54.7433 11.1977 54.8619 12.0076 54.8619 12.8948V23H51.0396V12.8948C51.0396 11.9251 50.8126 11.1771 50.3587 10.6509C49.9151 10.1145 49.2445 9.84625 48.3469 9.84625C47.6867 9.84625 47.0677 9.99584 46.4899 10.295C45.9122 10.5942 45.3654 11.0017 44.8496 11.5175V23H41.0273ZM64.1116 6.8441C64.7925 6.8441 65.4322 6.91632 66.0305 7.06075C66.6289 7.19486 67.1757 7.39604 67.6709 7.66427H72.236V9.08797C72.236 9.32526 72.1741 9.51096 72.0503 9.64507C71.9265 9.77919 71.715 9.87204 71.4158 9.92362L69.9921 10.1867C70.0953 10.4549 70.1727 10.7386 70.2242 11.0378C70.2861 11.337 70.3171 11.6517 70.3171 11.9818C70.3171 12.7659 70.1572 13.4777 69.8374 14.1173C69.5279 14.7467 69.0946 15.2831 68.5375 15.7267C67.9907 16.1704 67.3356 16.516 66.5721 16.7636C65.819 17.0009 64.9989 17.1195 64.1116 17.1195C63.5133 17.1195 62.9304 17.0628 62.3629 16.9493C61.8677 17.2485 61.6201 17.5837 61.6201 17.9551C61.6201 18.275 61.7646 18.5122 62.0534 18.667C62.3526 18.8114 62.7395 18.9146 63.2141 18.9765C63.699 19.0384 64.2457 19.0797 64.8544 19.1003C65.4631 19.1106 66.0873 19.1416 66.7269 19.1931C67.3665 19.2447 67.9907 19.3376 68.5994 19.4717C69.2081 19.5955 69.7497 19.7967 70.2242 20.0752C70.7091 20.3538 71.096 20.7355 71.3849 21.2204C71.6841 21.6949 71.8336 22.3088 71.8336 23.0619C71.8336 23.7634 71.6583 24.4443 71.3075 25.1046C70.967 25.7649 70.4667 26.3529 69.8064 26.8688C69.1565 27.3846 68.3569 27.7973 67.4078 28.1068C66.4587 28.4266 65.3754 28.5865 64.158 28.5865C62.951 28.5865 61.9039 28.4678 61.0166 28.2306C60.1294 28.0036 59.3917 27.6941 58.8037 27.3021C58.226 26.9203 57.7927 26.4767 57.5038 25.9712C57.2149 25.4657 57.0705 24.9395 57.0705 24.3928C57.0705 23.65 57.2975 23.0258 57.7514 22.5203C58.2053 22.0148 58.8346 21.6124 59.6393 21.3132C59.2473 21.0966 58.9327 20.8077 58.6954 20.4466C58.4581 20.0855 58.3394 19.6161 58.3394 19.0384C58.3394 18.8011 58.3807 18.5587 58.4632 18.3111C58.5458 18.0532 58.6696 17.8004 58.8346 17.5528C59.01 17.3052 59.2267 17.0731 59.4846 16.8564C59.7425 16.6295 60.0469 16.4283 60.3976 16.2529C59.5929 15.8196 58.9584 15.2419 58.4942 14.5197C58.0403 13.7975 57.8133 12.9516 57.8133 11.9818C57.8133 11.1977 57.968 10.491 58.2775 9.86172C58.5974 9.22209 59.0358 8.68047 59.5929 8.23685C60.1603 7.78292 60.8258 7.43731 61.5892 7.20002C62.3629 6.96274 63.2038 6.8441 64.1116 6.8441ZM68.3053 23.7119C68.3053 23.4024 68.2125 23.1496 68.0268 22.9536C67.8411 22.7576 67.5883 22.608 67.2685 22.5048C66.9487 22.3913 66.5721 22.3088 66.1388 22.2572C65.7159 22.2056 65.2619 22.1695 64.777 22.1489C64.3025 22.1179 63.8073 22.0921 63.2914 22.0715C62.7859 22.0405 62.2959 21.9941 61.8213 21.9322C61.388 22.1695 61.0373 22.4532 60.769 22.7833C60.5111 23.1032 60.3821 23.4746 60.3821 23.8976C60.3821 24.1761 60.4492 24.434 60.5833 24.6713C60.7278 24.9189 60.9496 25.1304 61.2487 25.3058C61.5582 25.4812 61.9554 25.6153 62.4403 25.7081C62.9252 25.8113 63.5184 25.8629 64.2199 25.8629C64.9318 25.8629 65.5456 25.8061 66.0615 25.6927C66.5773 25.5895 67.0003 25.4399 67.3304 25.2439C67.6709 25.0582 67.9185 24.8312 68.0732 24.563C68.228 24.3051 68.3053 24.0214 68.3053 23.7119ZM64.1116 14.6744C64.5862 14.6744 64.9989 14.6125 65.3496 14.4887C65.7004 14.3546 65.9893 14.1741 66.2162 13.9471C66.4535 13.7202 66.6289 13.4468 66.7424 13.1269C66.8662 12.8071 66.9281 12.4564 66.9281 12.0746C66.9281 11.2906 66.6908 10.6716 66.2162 10.2176C65.752 9.7534 65.0504 9.52127 64.1116 9.52127C63.1728 9.52127 62.4661 9.7534 61.9915 10.2176C61.5273 10.6716 61.2952 11.2906 61.2952 12.0746C61.2952 12.446 61.3519 12.7917 61.4654 13.1115C61.5892 13.4313 61.7646 13.7098 61.9915 13.9471C62.2288 14.1741 62.5229 14.3546 62.8736 14.4887C63.2347 14.6125 63.6474 14.6744 64.1116 14.6744ZM74.637 23V7.12265H76.8809C77.2729 7.12265 77.5463 7.19487 77.7011 7.3393C77.8558 7.48373 77.959 7.73133 78.0106 8.0821L78.2427 10.001C78.8101 9.02092 79.4756 8.24717 80.239 7.67975C81.0024 7.11233 81.8587 6.82862 82.8078 6.82862C83.5919 6.82862 84.2419 7.00917 84.7577 7.37025L84.2625 10.2331C84.2315 10.4188 84.1645 10.5529 84.0613 10.6355C83.9581 10.7077 83.8189 10.7438 83.6435 10.7438C83.4887 10.7438 83.2772 10.7077 83.009 10.6355C82.7408 10.5633 82.3849 10.5271 81.9412 10.5271C81.1469 10.5271 80.466 10.749 79.8985 11.1926C79.3311 11.6259 78.8514 12.2655 78.4594 13.1115V23H74.637ZM92.9038 27.364C92.7903 27.6322 92.6408 27.8334 92.4551 27.9675C92.2797 28.1119 92.0063 28.1841 91.6349 28.1841H88.7875L91.7587 21.8239L85.3366 7.12265H88.6792C88.9887 7.12265 89.2259 7.19487 89.391 7.3393C89.5561 7.48373 89.6799 7.6488 89.7624 7.8345L93.1514 16.0672C93.2649 16.3354 93.3629 16.614 93.4455 16.9028C93.528 17.1917 93.6002 17.4806 93.6621 17.7694C93.7446 17.4703 93.8323 17.1814 93.9252 16.9028C94.0283 16.6243 94.1367 16.3406 94.2502 16.0517L97.438 7.8345C97.5205 7.62817 97.6547 7.45794 97.8404 7.32382C98.0364 7.18971 98.253 7.12265 98.4903 7.12265H101.554L92.9038 27.364ZM100.745 20.8954C100.745 20.5756 100.802 20.2712 100.915 19.9824C101.039 19.6935 101.204 19.4459 101.41 19.2396C101.627 19.0332 101.88 18.8682 102.169 18.7444C102.457 18.6206 102.767 18.5587 103.097 18.5587C103.417 18.5587 103.721 18.6206 104.01 18.7444C104.299 18.8682 104.547 19.0332 104.753 19.2396C104.959 19.4459 105.124 19.6935 105.248 19.9824C105.372 20.2712 105.434 20.5756 105.434 20.8954C105.434 21.2255 105.372 21.535 105.248 21.8239C105.124 22.1024 104.959 22.3449 104.753 22.5512C104.547 22.7576 104.299 22.9175 104.01 23.031C103.721 23.1548 103.417 23.2167 103.097 23.2167C102.767 23.2167 102.457 23.1548 102.169 23.031C101.88 22.9175 101.627 22.7576 101.41 22.5512C101.204 22.3449 101.039 22.1024 100.915 21.8239C100.802 21.535 100.745 21.2255 100.745 20.8954Z" fill="white"/>
</svg>
